<svg xmlns="http://www.w3.org/2000/svg" width="800" height="800" viewBox="0 0 32 32">
  <path d="M16.66 1.03c1.63-.03 3.26-.01 4.88-.03a7.8 7.8 0 0 0 2.2 5.22h-.01A8.8 8.8 0 0 0 29 8.45h.03v5.04a13 13 0 0 1-5.33-1.25l.08.04c-.79-.38-1.45-.77-2.08-1.2l.05.03q.02 5.48-.02 10.94a9.5 9.5 0 0 1-1.7 4.95l.01-.03a9.3 9.3 0 0 1-7.37 4.01h-.01l-.42.01a9 9 0 0 1-4.72-1.32l.04.02A9.5 9.5 0 0 1 3 22.6v-.04q-.05-.95-.02-1.86a9.4 9.4 0 0 1 10.97-8.34l-.06-.01c.03 1.85-.05 3.7-.05 5.55a4.29 4.29 0 0 0-5.46 2.62l-.01.03a5 5 0 0 0-.17 2.03v-.02a4.26 4.26 0 0 0 4.38 3.58h-.01a4.2 4.2 0 0 0 3.45-1.99v-.02q.42-.57.52-1.3v-.02c.12-2.24.07-4.46.09-6.7q-.02-7.55.02-15.08z"/>
</svg>
